# xmcd
#
# Track frame offsets:
#	150
#	14510
#	26639
#	38107
#	47097
#	57709
#	69959
#	80740
#	95791
#	105729
#	116977
#
# Disc length: 1670 seconds
#
# Revision: 0
# Processed by: cddbd v1.5.2PL0 Copyright (c) Steve Scherf et al.
# Submitted via: dBpowerAMP V4.0
#
DISCID=9d06840b
DTITLE=Lustre Kings - Way Out There
DYEAR=2007
DGENRE=Rockabilly
TTITLE0=Mr. Big
TTITLE1=Empty Town
TTITLE2=Way Out There
TTITLE3=Humes High
TTITLE4=Diesel on my Tail
TTITLE5=Lookin' for my Baby
TTITLE6=Long Lean Baby
TTITLE7=I'm Blue I'm Lonesome
TTITLE8=Just About Through With You
TTITLE9=Sparkling Brown Eyes
TTITLE10=Shazam
EXTD=Marg Campbell -- The Magpie
EXTT0=
EXTT1=
EXTT2=
EXTT3=
EXTT4=
EXTT5=
EXTT6=
EXTT7=
EXTT8=
EXTT9=
EXTT10=
PLAYORDER=
